# ═══════════════════════════════════════════════════════════
# 3D 箭头 (Arrow)
# ═══════════════════════════════════════════════════════════
#
# 13 个顶点 · 14 个三角面
#
# 箭头是 3D 世界中最万能的可视化工具：
#   · 表示光线方向 → 「灯光从哪个角度照过来」
#   · 表示相机朝向 → 「摄像机看向哪里」
#   · 表示法线方向 → 「这个表面朝哪边」
#   · 表示速度/力  → 物理模拟中的向量
#
# 结构：长方体杆身 + 四棱锥箭头
# 箭头沿 Y 轴向上，方便理解为「方向向量」
# ═══════════════════════════════════════════════════════════

# ─── 杆身顶点 (8个) ───
# 细长方体，从 y=-0.4 到 y=0.3
v -0.03 -0.40 -0.03
v  0.03 -0.40 -0.03
v  0.03 -0.40  0.03
v -0.03 -0.40  0.03
v -0.03  0.30 -0.03
v  0.03  0.30 -0.03
v  0.03  0.30  0.03
v -0.03  0.30  0.03

# ─── 箭头顶点 (5个) ───
# 四棱锥，底面在 y=0.3，尖端在 y=0.7
v -0.12  0.30 -0.12
v  0.12  0.30 -0.12
v  0.12  0.30  0.12
v -0.12  0.30  0.12
v  0.00  0.70  0.00

# ─── 法线 ───
vn  0.0000  0.0000  1.0000
vn  1.0000  0.0000  0.0000
vn  0.0000  0.0000 -1.0000
vn -1.0000  0.0000  0.0000
vn  0.0000 -1.0000  0.0000
vn  0.0000  0.2873  0.9578
vn  0.9578  0.2873  0.0000
vn  0.0000  0.2873 -0.9578
vn -0.9578  0.2873  0.0000

# ─── 杆身面 (5面 = 10个三角形) ───
# 前 (+Z)
f 4//1 3//1 7//1
f 4//1 7//1 8//1
# 右 (+X)
f 3//2 2//2 6//2
f 3//2 6//2 7//2
# 后 (-Z)
f 2//3 1//3 5//3
f 2//3 5//3 6//3
# 左 (-X)
f 1//4 4//4 8//4
f 1//4 8//4 5//4
# 底 (-Y)
f 1//5 2//5 3//5
f 1//5 3//5 4//5

# ─── 箭头面 (4面 = 4个三角形) ───
# 前侧：箭头斜面朝前方+上方
f 12//6 11//6 13//6
# 右侧
f 11//7 10//7 13//7
# 后侧
f 10//8  9//8 13//8
# 左侧
f  9//9 12//9 13//9
